<?xml version="1.0" standalone="no"?>
<!DOCTYPE svg PUBLIC "-//W3C//DTD SVG 1.1//EN" "http://www.w3.org/Graphics/SVG/1.1/DTD/svg11.dtd" >
<svg xmlns="http://www.w3.org/2000/svg" xmlns:xlink="http://www.w3.org/1999/xlink" version="1.1">
<metadata></metadata>
<defs>
<font id="futwora_regularregular" horiz-adv-x="1755" >
<font-face units-per-em="2048" ascent="1638" descent="-410" />
<missing-glyph horiz-adv-x="655" />
<glyph unicode="&#xfb01;" horiz-adv-x="1560" d="M86 821v195h236v211q0 170 120.5 290.5t290.5 120.5q168 0 291 -120l-137 -138q-64 64 -154 64q-89 0 -155 -66q-62 -65 -62 -151v-211h234v-195h-234v-821h-194v821h-236zM1133 1374q0 57 40 97t97 40t97 -40t40 -97t-40 -97t-97 -40t-97 40t-40 97zM1165 2v1014h205 v-1014h-205z" />
<glyph unicode="&#xfb02;" horiz-adv-x="1536" d="M86 821v195h236v211q0 170 120.5 290.5t290.5 120.5q168 0 291 -120l-137 -138q-64 64 -154 64q-89 0 -155 -66q-62 -65 -62 -151v-211h234v-195h-234v-821h-194v821h-236zM1165 2v1620h205v-1620h-205z" />
<glyph horiz-adv-x="0" />
<glyph horiz-adv-x="682" />
<glyph unicode=" "  horiz-adv-x="655" />
<glyph unicode="&#x09;" horiz-adv-x="655" />
<glyph unicode="&#xa0;" horiz-adv-x="655" />
<glyph unicode="!" horiz-adv-x="632" d="M174 123q0 57 40 97t97 40t97.5 -40t40.5 -97t-40.5 -97t-97.5 -40t-97 40t-40 97zM205 487v1135h205v-1135h-205z" />
<glyph unicode="&#x22;" horiz-adv-x="747" d="M92 877v561h219v-561h-219zM432 877v561h223v-561h-223z" />
<glyph unicode="#" horiz-adv-x="1759" d="M143 399l101 217h239l113 254h-234l101 217h227l176 400h221l-176 -400h283l174 400h221l-174 -400h246l-100 -217h-240l-111 -254h232l-101 -217h-225l-176 -399h-223l176 399h-281l-176 -399h-223l176 399h-246zM707 616h280l111 254h-281z" />
<glyph unicode="$" horiz-adv-x="1306" d="M139 213l162 160q53 -46 124.5 -84t151.5 -61t161.5 -13.5t140.5 57.5q65 57 71 134t-49 149q-40 53 -105.5 92.5t-170.5 85.5q-175 83 -248 135h-2q-77 54 -122.5 135.5t-53.5 168.5t27.5 174t113.5 149v2q110 83 258 92v99h96v-99q102 -9 198.5 -49.5t172.5 -107.5 l-160 -162q-115 94 -260 94q-52 0 -100 -15t-85.5 -53.5t-37.5 -93.5q0 -37 18 -71.5t42 -58t65.5 -48.5t69.5 -38.5t73 -33.5l27 -12q68 -30 107 -49.5t98 -56.5t104 -78q71 -66 108.5 -154.5t36.5 -183.5q2 -94 -37.5 -180t-111.5 -146q-129 -103 -328 -106v-92h-96v98 q-250 27 -459 221z" />
<glyph unicode="%" horiz-adv-x="2058" d="M61 1204q0 154 108.5 263.5t260.5 109.5q155 0 264 -109.5t109 -263.5t-109 -262t-264 -108q-152 0 -260.5 108t-108.5 262zM104 0l1575 1577h295l-1575 -1577h-295zM281 1204q0 -63 43.5 -107t105.5 -44q63 0 107.5 44t44.5 107q0 62 -44.5 106t-107.5 44 q-61 0 -105 -44t-44 -106zM1274 371q0 154 110 263t265 109q152 0 260 -109t108 -263t-108 -262.5t-260 -108.5q-155 0 -265 108.5t-110 262.5zM1497 371q0 -63 44.5 -107.5t107.5 -44.5q62 0 105.5 44.5t43.5 107.5q0 61 -44 105t-105 44q-63 0 -107.5 -43.5t-44.5 -105.5z " />
<glyph unicode="&#x26;" horiz-adv-x="1454" d="M184 477q0 109 45.5 208t128.5 169l29 25l-25 28q-100 115 -100 271q0 170 122 291.5t294 121.5q149 0 270 -100l-151 -148q-55 39 -119 39q-85 0 -145 -59.5t-60 -144.5q0 -75 48 -132t120 -71v-215q-98 -16 -164 -82q-82 -82 -82 -201q0 -117 83 -198.5t200 -81.5 t200 81.5t83 198.5v496h391v-211h-183v-285q0 -133 -65.5 -246t-178.5 -179t-247 -66t-247.5 66t-180 179t-66.5 246z" />
<glyph unicode="'" horiz-adv-x="638" d="M143 1423q0 71 50.5 121.5t121.5 50.5q69 0 119.5 -51t50.5 -121q0 -126 -83.5 -220t-208.5 -109v41q54 6 95 39t58 83q-20 -4 -31 -4q-70 0 -121 50.5t-51 119.5z" />
<glyph unicode="(" horiz-adv-x="1044" d="M178 610q0 342 149 654t414 528l142 -180q-216 -176 -338 -420q-68 -133 -103 -279q-34 -145 -34 -303q0 -307 135 -577q124 -241 336 -420l-142 -180q-267 218 -413 525.5t-146 651.5z" />
<glyph unicode=")" horiz-adv-x="1044" d="M162 1612l141 180q265 -216 414 -528t149 -654q0 -344 -146 -651.5t-413 -525.5l-141 180q212 179 336 420q135 270 135 577q0 154 -35 303q-36 150 -102 279q-122 244 -338 420z" />
<glyph unicode="*" horiz-adv-x="978" d="M143 1034v164l187 -16l-144 121l117 116l121 -145l-16 188h163l-16 -188l121 145l117 -116l-146 -121l189 16v-164l-189 21l146 -125l-117 -117l-121 145l16 -188h-163l16 188l-121 -145l-117 117l144 125z" />
<glyph unicode="+" horiz-adv-x="1648" d="M225 496v231h482v494h237v-494h479v-231h-479v-496h-237v496h-482z" />
<glyph unicode="," horiz-adv-x="630" d="M174 121q0 57 40 97t97 40q56 0 95.5 -40t39.5 -97q0 -100 -67 -176t-166 -88v32q42 6 75.5 33t47.5 66q-4 0 -12.5 -1t-12.5 -1q-57 0 -97 39.5t-40 95.5z" />
<glyph unicode="-" horiz-adv-x="946" d="M184 494v235h578v-235h-578z" />
<glyph unicode="." horiz-adv-x="628" d="M174 121q0 57 39 97t96 40t96 -40t39 -97q0 -56 -39 -95.5t-96 -39.5t-96 39.5t-39 95.5z" />
<glyph unicode="/" horiz-adv-x="1134" d="M102 2l717 1577h230l-715 -1577h-232z" />
<glyph unicode="0" horiz-adv-x="1304" d="M143 492v598q0 100 39 193t111 167q150 147 360 147q138 0 255 -67.5t185 -184.5t68 -255v-598q0 -101 -38.5 -194t-110.5 -165q-70 -70 -164 -108.5t-195 -38.5q-138 0 -255.5 68t-186 184.5t-68.5 253.5zM354 492q0 -122 86 -211q91 -88 213 -88q120 0 211 88 q88 91 88 211v598q0 122 -88 213q-89 86 -211 86q-124 0 -213 -89q-86 -86 -86 -210v-598z" />
<glyph unicode="1" horiz-adv-x="1110" d="M139 0v184h326v1078l-326 -160v203l545 278v-1399h328v-184h-873z" />
<glyph unicode="2" horiz-adv-x="1226" d="M78 1126q14 195 159 330t343 135q138 0 255 -68t184.5 -185t67.5 -255q0 -172 -104 -307l-455 -590h596v-186h-1005l696 905h2q60 82 60 178q0 125 -86 211t-211 86q-123 0 -207 -84q-74 -74 -86 -170h-209z" />
<glyph unicode="3" horiz-adv-x="1220" d="M113 449h209q15 -100 88 -170q86 -86 208 -86q121 0 210.5 88t89.5 213t-89 211q-85 88 -211 88q-102 0 -182 -64l-151 152l493 487h-608v209h883v-234l-357 -350q6 0 16.5 -2t42 -10.5t63 -21.5t73.5 -40t78 -61q77 -73 118 -167.5t41 -198.5q-2 -102 -40.5 -194.5 t-110.5 -162.5q-68 -71 -162.5 -110t-196.5 -39q-214 0 -360 149q-129 126 -145 314z" />
<glyph unicode="4" horiz-adv-x="1382" d="M20 272l1043 1311v-1134h227v-177h-227v-272h-227v272h-816zM410 449h426l2 528z" />
<glyph unicode="5" horiz-adv-x="1218" d="M102 449h211q15 -109 99 -181.5t196 -72.5q123 0 211 86.5t88 212.5q0 125 -87.5 213t-211.5 88q-141 0 -227 -109l-213 78l84 811h825v-205h-645l-45 -422q8 7 55 25q76 26 166 26q211 0 361 -147q97 -97 131.5 -228t0 -262t-131.5 -229q-72 -72 -165.5 -110.5 t-195.5 -38.5q-209 0 -358 149q-129 126 -148 316z" />
<glyph unicode="6" horiz-adv-x="1245" d="M124.5 448.5q-17.5 183.5 84.5 333.5l577 854l166 -112q-332 -504 -342 -518q23 0 51.5 1t70 -8t83.5 -23t90.5 -44.5t91.5 -71.5q72 -72 111 -165.5t39 -196.5t-39 -197t-111 -166h-2q-70 -72 -163.5 -110.5t-196.5 -38.5t-197 38.5t-166 110.5q-130 130 -147.5 313.5z M344 498q0 -120 85.5 -205.5t205.5 -85.5q119 0 205 86q86 83 86 205q0 121 -86 204q-86 86 -205 86q-120 0 -205.5 -85t-85.5 -205z" />
<glyph unicode="7" horiz-adv-x="1153" d="M123 1368v213h1061l-770 -1595l-221 104l620 1278h-690z" />
<glyph unicode="8" horiz-adv-x="1216" d="M102 487q0 101 39 194t111 165h2v2q20 20 68 59l-23 29q-94 122 -84 274.5t117 259.5q121 121 289 121t286 -118v-3q113 -110 120.5 -265.5t-93.5 -278.5l-23 -29l62 -53q96 -97 130 -226t-0.5 -258t-131.5 -227q-72 -70 -165.5 -108.5t-193.5 -38.5q-210 0 -360 147 q-150 150 -150 354zM324 485q0 -118 84 -199t204 -81q119 0 204 81t85 199q0 121 -84 205t-205 84q-120 0 -204 -84t-84 -205zM432 1186q0 -78 55 -133q56 -56 134 -56q75 0 131 56q55 55 55 133q0 76 -54.5 130t-131.5 54q-81 0 -134 -53q-55 -55 -55 -131z" />
<glyph unicode="9" horiz-adv-x="1245" d="M98 1124q0 103 39 197t111 166h2q70 72 163.5 110.5t196.5 38.5t197 -38.5t166 -110.5q130 -130 147.5 -313.5t-84.5 -333.5l-577 -854l-166 112q332 504 342 518q-23 0 -51.5 -1t-70 8t-83.5 23t-90.5 44.5t-91.5 71.5q-72 72 -111 165.5t-39 196.5zM319 1124 q0 -120 87 -204q86 -86 204 -86q120 0 205.5 85t85.5 205t-85.5 205.5t-205.5 85.5q-118 0 -204 -86q-87 -84 -87 -205z" />
<glyph unicode=":" horiz-adv-x="632" d="M174 123q0 57 40 97t97 40t97.5 -40t40.5 -97t-40.5 -97t-97.5 -40t-97 40t-40 97zM174 760q0 57 40 97t97 40t97.5 -40t40.5 -97t-40.5 -97t-97.5 -40t-97 40t-40 97z" />
<glyph unicode=";" horiz-adv-x="632" d="M174 121q0 57 40 97t97 40q56 0 95.5 -40t39.5 -97q0 -100 -67 -176t-166 -88v32q42 6 75.5 33t47.5 66q-4 0 -12.5 -1t-12.5 -1q-57 0 -97 39.5t-40 95.5zM174 772q0 57 40 97t97 40t97.5 -40t40.5 -97t-40.5 -97t-97.5 -40t-97 40t-40 97z" />
<glyph unicode="&#x3c;" horiz-adv-x="1628" d="M225 494v233l1178 487v-253l-854 -351l854 -348v-254z" />
<glyph unicode="=" horiz-adv-x="1648" d="M225 272v230h1198v-230h-1198zM225 719v231h1198v-231h-1198z" />
<glyph unicode="&#x3e;" horiz-adv-x="1628" d="M225 8v254l854 348l-854 351v253l1178 -487v-233z" />
<glyph unicode="?" horiz-adv-x="1101" d="M174 1305q29 125 132 205.5t233 80.5q168 -3 282 -114q97 -100 97 -240q0 -63 -23 -127.5t-61 -105.5l-3 -3h-2q-16 -22 -41 -41.5t-65 -40.5t-60.5 -30.5t-68.5 -30.5q-6 -3 -34 -14.5t-42.5 -18t-38 -21.5t-34.5 -28.5t-18.5 -34t-2.5 -43.5q6 -34 30 -57.5t56 -26.5 h12q28 0 52 14.5t36 37.5l219 -29q-28 -103 -113.5 -169.5t-193.5 -66.5q-124 0 -218.5 92t-94.5 224v43q17 106 93 173t202 120q123 54 149 75v2q35 27 45.5 68t-4.5 82q-15 44 -54 71t-87 27h-16q-50 -1 -90.5 -29t-59.5 -73zM391 123q0 57 40 97t97 40t97.5 -40t40.5 -97 t-40.5 -97t-97.5 -40t-97 40t-40 97z" />
<glyph unicode="@" horiz-adv-x="2086" d="M133 395q0 342 209 598q148 182 359 277.5t468 95.5q173 0 323 -47t257 -131q270 -212 270 -549q0 -167 -65.5 -307t-190.5 -240q-142 -115 -329 -115q-160 0 -207 72q-101 -69 -223 -63q-15 0 -35 4q-159 23 -256 152.5t-88 293.5q0 15 4 43q25 167 147.5 276t282.5 103 q6 -1 18.5 -2t18.5 -2q138 -21 225 -125l12 80h176l-84 -553q-4 -24 -4 -49q0 -31 12.5 -45.5t43.5 -14.5q88 0 166.5 68t125 181.5t46.5 240.5q0 237 -179 389t-469 152t-503 -146q-155 -110 -239.5 -274.5t-84.5 -356.5q0 -302 203 -481.5t544 -179.5q336 0 596 186 l97 -135q-309 -233 -693 -233q-389 0 -643 194q-311 241 -311 643zM805 426q-6 -100 49.5 -174.5t138.5 -85.5q6 -2 19 -2q85 -6 156.5 58t86.5 167q1 4 2.5 13.5t2.5 13.5q4 102 -51.5 176.5t-139.5 85.5q-3 0 -9 1t-9 1h-2q-85 5 -156 -59.5t-86 -167.5q-2 -8 -2 -27z" />
<glyph unicode="A" d="M106 0l648 1577h243l652 -1577h-242l-135 326h-789l-133 -326h-244zM571 545h609l-306 739z" />
<glyph unicode="B" horiz-adv-x="1456" d="M199 0v1577h528q172 0 294 -124.5t122 -297.5q0 -44 -10 -88t-24.5 -75.5t-29.5 -56.5t-25 -37l-10 -13q10 -5 27 -15t59.5 -46.5t75 -80t59.5 -116t27 -152.5q0 -127 -63.5 -236t-172 -173.5t-235.5 -65.5h-622zM414 215h407q108 0 185 76t77 184q0 105 -76.5 180 t-185.5 80h-407v-520zM414 948h313q87 0 149 60t62 147t-62 147t-149 60h-313v-414z" />
<glyph unicode="C" horiz-adv-x="1603" d="M158 580q-27 104 -27 208q-1 104 27 207q54 207 209 361q114 112 262 173.5t305 61.5q158 0 305.5 -61t261.5 -174l-162 -162q-81 81 -187 124.5t-218 43.5q-115 0 -222 -44.5t-186 -123.5q-168 -168 -168 -408q0 -237 168 -405t408 -168q117 0 221.5 43t183.5 125 l162 -162q-114 -114 -259.5 -173.5t-307.5 -59.5q-158 0 -306 61t-261 172q-155 153 -209 361z" />
<glyph unicode="D" horiz-adv-x="1587" d="M199 0v1577h469q128 -1 248 -41t217 -112.5t170 -169t113 -216.5t40 -247q0 -160 -62.5 -306t-168 -252t-251.5 -169t-306 -64h-469zM416 217h256q236 0 407 166q170 167 170 408q0 116 -43.5 220t-126.5 183q-172 164 -407 164h-256v-1141z" />
<glyph unicode="E" horiz-adv-x="1325" d="M199 0v1577h983v-217h-764v-481h665v-217h-665v-443h764v-219h-983z" />
<glyph unicode="F" horiz-adv-x="1314" d="M199 0v1577h983v-217h-764v-481h665v-217h-665v-662h-219z" />
<glyph unicode="G" horiz-adv-x="1777" d="M158 580q-27 104 -27 208t27 207q55 207 209 361q115 114 262 174.5t307 60.5q149 0 290 -54.5t251 -154.5l-160 -159q-170 141 -381 141q-240 0 -408 -168q-170 -167 -170 -410q0 -240 170 -407q81 -83 186.5 -126.5t221.5 -43.5q264 0 471 244v219h-438v207h661v-494 q-110 -185 -296 -292t-398 -107q-162 0 -308 59.5t-261 173.5q-154 154 -209 361z" />
<glyph unicode="H" horiz-adv-x="1746" d="M199 0v1577h221v-700h911v700h217v-1577h-217v662h-911v-662h-221z" />
<glyph unicode="I" horiz-adv-x="628" d="M205 0v1577h219v-1577h-219z" />
<glyph unicode="J" horiz-adv-x="1159" d="M92 309l209 37q26 -66 91 -105.5t140 -39.5q95 0 168.5 59.5t77.5 155.5v1161h211v-1161q0 -86 -35 -165.5t-100 -139.5q-134 -125 -322 -125h-8q-153 3 -273.5 93t-158.5 230z" />
<glyph unicode="K" horiz-adv-x="1480" d="M199 -2v1577h217v-668l590 668h268l-674 -764l809 -813h-293l-700 702v-702h-217z" />
<glyph unicode="L" horiz-adv-x="1284" d="M199 0v1577h225v-1376h735v-201h-960z" />
<glyph unicode="M" horiz-adv-x="2058" d="M199 -2v1577h245l584 -823l582 823h250v-1577h-224v1221l-608 -852l-608 860v-1229h-221z" />
<glyph unicode="N" horiz-adv-x="1763" d="M199 0v1577h262l878 -1219v1219h226v-1577h-252l-889 1237v-1237h-225z" />
<glyph unicode="O" horiz-adv-x="1867" d="M131 786q0 161 61 308.5t175 261.5q114 113 261.5 174t305.5 61q157 0 305 -61.5t262 -173.5q155 -154 209 -361q27 -104 27 -207q1 -104 -27 -208q-54 -208 -209 -361q-113 -111 -261 -172t-306 -61q-162 0 -307.5 59.5t-259.5 173.5t-175 260t-61 307zM360 784 q0 -116 43 -220t125 -183q79 -82 184 -125t222 -43q239 0 407 168t168 405q0 240 -168 408q-79 79 -186 123.5t-221 44.5q-112 0 -218.5 -43.5t-187.5 -124.5q-80 -80 -126 -188q-43 -101 -42 -208v-14z" />
<glyph unicode="P" horiz-adv-x="1382" d="M199 0v1577h632q113 0 213.5 -64t160 -171.5t59.5 -229.5q0 -187 -130 -327t-303 -140h-407v-645h-225zM424 864h407q95 0 162 76q66 76 66 172t-66 172q-68 78 -162 78h-407v-498z" />
<glyph unicode="Q" horiz-adv-x="1871" d="M131 786q0 161 61 308.5t175 261.5q114 113 261.5 174t305.5 61q157 0 305 -61.5t262 -173.5q153 -153 208 -358q28 -105 28 -211q0 -99 -25 -199q-52 -205 -201 -359l185 -229h-260l-84 102q-191 -116 -418 -116q-162 0 -307.5 59.5t-259.5 173.5t-175 260t-61 307z M360 784q0 -116 43 -220t125 -183q79 -82 184 -125t222 -43q150 0 274 68l-315 391l158 127l315 -391q143 158 143 378q0 240 -168 408q-79 79 -186 123.5t-221 44.5q-112 0 -218.5 -43.5t-187.5 -124.5q-80 -80 -126 -188q-42 -101 -42 -208v-14z" />
<glyph unicode="R" horiz-adv-x="1478" d="M199 0v1577h632q113 0 213.5 -64.5t160 -172.5t59.5 -230q0 -136 -78 -257t-201 -177l-41 -17l436 -659h-262l-426 643h-268v-643h-225zM424 862h407q92 0 160 76t68 172t-65 170t-163 78h-407v-496z" />
<glyph unicode="S" horiz-adv-x="1302" d="M139 301l199 105q32 -52 84 -101q100 -89 215 -98q5 0 14.5 -1t14.5 -1q100 0 184 58.5t102 156.5q2 15 2 31q0 25 -6 49q-10 40 -35.5 79t-76.5 73.5t-123 56.5h-2q-27 8 -111 28.5t-140 40.5t-108 51q-87 56 -134.5 143.5t-47.5 192.5q0 92 40.5 177t113.5 143 q130 106 321 106q125 0 222.5 -60.5t181.5 -168.5l-187 -115q-40 56 -101 90.5t-128 34.5q-110 0 -181 -73q-51 -53 -51 -121q0 -26 7 -54q12 -49 48 -84.5t89 -50.5q18 -5 70.5 -18.5t78.5 -21.5t68.5 -21t78 -28t68.5 -32q123 -70 190.5 -181.5t67.5 -242.5 q0 -184 -120 -307q-160 -151 -408 -151q-181 0 -328 114q-100 75 -172 201z" />
<glyph unicode="T" horiz-adv-x="1204" d="M111 1360v217h983v-217h-379v-1360h-223v1360h-381z" />
<glyph unicode="U" horiz-adv-x="1714" d="M174 668v909h223v-899q0 -194 135 -326q132 -135 326 -135q124 0 229.5 62t166.5 168t61 231v899h225v-909q0 -111 -34.5 -214.5t-97.5 -187.5t-146.5 -147.5t-188 -98t-215.5 -34.5q-139 0 -265.5 54t-218 145.5t-146 218t-54.5 264.5z" />
<glyph unicode="V" horiz-adv-x="1640" d="M66 1577h243l514 -1239l508 1239h244l-649 -1577h-207z" />
<glyph unicode="W" horiz-adv-x="2291" d="M66 1577h245l353 -1284l348 1284h266l356 -1284l346 1284h246l-459 -1577h-266l-352 1198l-352 -1198h-269z" />
<glyph unicode="X" horiz-adv-x="1323" d="M80 1577h258l326 -563q46 81 155.5 268t169.5 295h254l-452 -786q63 -112 216.5 -377t235.5 -414h-250l-329 569l-330 -569h-252l455 791q-77 135 -229 394.5t-228 391.5z" />
<glyph unicode="Y" horiz-adv-x="1433" d="M102 1577h236l383 -645l377 645h239l-508 -918v-659h-225v672z" />
<glyph unicode="Z" horiz-adv-x="1421" d="M164 1364v213h1061l-664 -1370h696v-207h-1060l663 1364h-696z" />
<glyph unicode="[" horiz-adv-x="804" d="M174 -285v1958h508v-200h-301v-1557h301v-201h-508z" />
<glyph unicode="\" horiz-adv-x="946" d="M0 1583h223l723 -1583h-221z" />
<glyph unicode="]" horiz-adv-x="804" d="M123 -84h301v1557h-301v200h508v-1958h-508v201z" />
<glyph unicode="^" horiz-adv-x="2048" d="M535 954l372 451h232l370 -451h-211l-274 275l-276 -275h-213z" />
<glyph unicode="_" horiz-adv-x="1024" d="M0 -244h1024v-207h-1024v207z" />
<glyph unicode="`" horiz-adv-x="1040" d="M158 1579h223l145 -281h-123z" />
<glyph unicode="a" horiz-adv-x="1316" d="M123 506q0 144 67.5 264t185.5 189t259 69q55 0 107.5 -12.5t88 -31t63.5 -36.5t41 -30l13 -13v109h203v-1014h-203v109q-5 -5 -14 -13.5t-39.5 -29.5t-64.5 -37t-87 -29.5t-108 -13.5q-215 0 -363.5 151t-148.5 369zM326 506q0 -129 92 -221q92 -95 217 -95 q123 0 221 95q94 94 94 221t-94.5 222t-220.5 95q-125 0 -217 -94t-92 -223z" />
<glyph unicode="b" horiz-adv-x="1327" d="M176 0v1638h203v-733q5 5 14 13.5t39.5 29.5t64.5 37t87 29.5t108 13.5q141 0 259 -69t185.5 -189t67.5 -264q0 -218 -148.5 -369t-363.5 -151q-55 0 -107.5 12.5t-88 31t-63.5 36.5t-41 30l-13 13v-109h-203zM377 506q0 -127 94 -221q98 -95 221 -95q125 0 217 95 q92 92 92 221t-92 223t-217 94q-126 0 -220.5 -95t-94.5 -222z" />
<glyph unicode="c" horiz-adv-x="1103" d="M123 506q0 144 67.5 264t185.5 189t259 69q107 0 201 -41t165 -115l-147 -147q-42 46 -99 72t-120 26q-125 0 -217 -94t-92 -223q0 -124 91 -220t218 -96q125 0 217 95l2 2l147 -148q-71 -72 -165 -112.5t-201 -40.5q-215 0 -363.5 151t-148.5 369z" />
<glyph unicode="d" horiz-adv-x="1318" d="M123 506q0 144 67.5 264t185.5 189t259 69q55 0 107.5 -12.5t88 -31t63.5 -36.5t41 -30l13 -13v733h203v-1638h-203v109q-5 -5 -14 -13.5t-39.5 -29.5t-64.5 -37t-87 -29.5t-108 -13.5q-215 0 -363.5 151t-148.5 369zM326 506q0 -129 92 -221q92 -95 217 -95 q123 0 221 95q94 94 94 221t-94.5 222t-220.5 95q-125 0 -217 -94t-92 -223z" />
<glyph unicode="e" horiz-adv-x="1253" d="M123 506q0 144 67.5 264t185.5 189t259 69q155 0 284 -89t190 -234q40 -94 40 -192q0 -53 -12 -107h-795q33 -93 113 -154.5t180 -61.5q125 0 217 95l2 2l147 -148q-71 -72 -165 -112.5t-201 -40.5q-215 0 -363.5 151t-148.5 369zM342 614h584q-32 93 -112.5 151 t-178.5 58t-179.5 -58t-113.5 -151z" />
<glyph unicode="f" horiz-adv-x="921" d="M86 821v195h236v211q0 170 120.5 290.5t290.5 120.5q168 0 291 -120l-137 -138q-64 64 -154 64q-89 0 -155 -66q-62 -65 -62 -151v-211h234v-195h-234v-821h-194v821h-236z" />
<glyph unicode="g" horiz-adv-x="1323" d="M129 506q0 144 67.5 264t185.5 189t259 69q55 0 107.5 -12.5t88 -31t63.5 -36.5t41 -30l13 -13v109h203v-1030q0 -104 -38.5 -198.5t-110.5 -166.5q-151 -151 -365 -151q-216 0 -364 151l143 143q89 -92 221 -92q129 0 220 92t91 222v125q-5 -5 -14 -13.5t-39.5 -29.5 t-64.5 -37t-87 -29.5t-108 -13.5q-215 0 -363.5 151t-148.5 369zM332 506q0 -129 92 -221q92 -95 217 -95q123 0 221 95q94 94 94 221t-94.5 222t-220.5 95q-125 0 -217 -94t-92 -223z" />
<glyph unicode="h" horiz-adv-x="1335" d="M172 0v1638h203v-745q4 5 11.5 14.5t35 32.5t60.5 41t88 32.5t116 14.5q137 0 251 -68.5t179.5 -187t65.5 -260.5v-512h-203v502q0 128 -82 223q-88 102 -211 102q-125 0 -219 -94q-92 -92 -92 -221v-512h-203z" />
<glyph unicode="i" horiz-adv-x="581" d="M154 1374q0 57 40 97t97 40t97 -40t40 -97t-40 -97t-97 -40t-97 40t-40 97zM186 2v1014h205v-1014h-205z" />
<glyph unicode="j" horiz-adv-x="581" d="M154 1374q0 57 40 97t97 40t97 -40t40 -97t-40 -97t-97 -40t-97 40t-40 97zM186 -532v1548h205v-1548h-205z" />
<glyph unicode="k" horiz-adv-x="1204" d="M172 0v1638h207v-1032l405 408h301l-462 -463l551 -551h-300l-495 498v-498h-207z" />
<glyph unicode="l" horiz-adv-x="536" d="M166 2v1636h205v-1636h-205z" />
<glyph unicode="m" horiz-adv-x="1937" d="M166 0v1014h196v-94l11.5 11.5t34 26t57 33t80.5 26t104 11.5q53 0 105.5 -17.5t90 -42t68 -49t45.5 -41.5l15 -18q5 7 14.5 18t42.5 40t71 51.5t99.5 40.5t128.5 18q188 0 317.5 -133t129.5 -326v-569h-197v571q0 100 -73.5 176t-176.5 76q-102 0 -174.5 -73t-77.5 -179 v-571h-198v561q0 101 -79 176.5t-184 75.5q-102 0 -175.5 -73.5t-78.5 -178.5v-561h-196z" />
<glyph unicode="n" horiz-adv-x="1253" d="M166 0v1012h205v-119q4 5 11 14.5t32.5 32.5t54.5 41t78 32.5t102 14.5q198 0 320.5 -129.5t122.5 -341.5v-557h-201v567q0 109 -78 188t-184 79q-109 0 -183 -80q-75 -75 -75 -185v-569h-205z" />
<glyph unicode="o" horiz-adv-x="1273" d="M123 506q0 144 68 264t186.5 189t259.5 69t259.5 -69t186.5 -189t68 -264q0 -218 -149.5 -369t-364.5 -151t-364.5 151t-149.5 369zM328 506q0 -124 91 -220t218 -96q123 0 216 94.5t93 221.5q0 129 -92 223t-217 94t-217 -94t-92 -223z" />
<glyph unicode="p" horiz-adv-x="1323" d="M172 -532v1546h203v-109q5 5 14 13.5t39.5 29.5t64.5 37t87 29.5t108 13.5q215 0 363.5 -151t148.5 -369q0 -144 -67.5 -264t-185.5 -189t-259 -69q-55 0 -107.5 12.5t-88 31t-63.5 36.5t-41 30l-13 13v-641h-203zM373 508q0 -127 94.5 -222.5t220.5 -95.5 q125 0 217 94.5t92 223.5t-92 221q-91 94 -217 94q-124 0 -221 -94q-94 -94 -94 -221z" />
<glyph unicode="q" horiz-adv-x="1323" d="M123 508q0 218 148.5 369t363.5 151q55 0 107.5 -12.5t88 -31t63.5 -36.5t41 -30l13 -13v109h203v-1546h-203v641q-5 -5 -14 -13.5t-39.5 -29.5t-64.5 -37t-87 -29.5t-108 -13.5q-141 0 -259 69t-185.5 189t-67.5 264zM326 508q0 -129 92 -223.5t217 -94.5 q126 0 220.5 95.5t94.5 222.5t-94 221q-97 94 -221 94q-126 0 -217 -94q-92 -92 -92 -221z" />
<glyph unicode="r" horiz-adv-x="892" d="M166 0v1014h205v-121q4 5 11 14.5t32.5 32.5t54.5 41t78 32.5t102 14.5q113 0 205 -45l-78 -197q-71 48 -147 48q-104 0 -178.5 -78t-79.5 -187v-569h-205z" />
<glyph unicode="s" horiz-adv-x="929" d="M127 180l182 96q72 -92 174 -92q60 0 99 43q25 27 25 60q0 19 -9 41q-24 60 -123 98q-20 7 -69.5 20t-85 28t-72.5 42q-54 41 -84.5 100t-30.5 123q0 123 94.5 206t223.5 83q75 0 148 -39t120 -102l-172 -94q-40 49 -98 49q-40 0 -70.5 -22t-36.5 -56q-2 -9 -2 -17 q0 -65 96 -98q160 -52 189 -67q81 -42 133.5 -118t52.5 -167q0 -127 -86 -213h-2q-92 -98 -260 -98q-103 0 -189.5 51t-146.5 143z" />
<glyph unicode="t" horiz-adv-x="782" d="M102 821v195h189v362h201v-362h188v-195h-188v-823h-201v823h-189z" />
<glyph unicode="u" horiz-adv-x="1265" d="M162 459v555h200v-555q0 -105 82 -187q79 -82 189 -82q109 0 188 82q82 82 82 187v555h201v-555q0 -196 -138 -334.5t-333 -138.5t-333 138.5t-138 334.5z" />
<glyph unicode="v" horiz-adv-x="1058" d="M20 1014h216l296 -695l291 695h215l-415 -1014h-183z" />
<glyph unicode="w" horiz-adv-x="1773" d="M20 1014h218l290 -719l232 719h254l231 -719l293 719h215l-412 -1014h-196l-258 788l-258 -788h-197z" />
<glyph unicode="x" horiz-adv-x="995" d="M20 1014h246l232 -338l229 338h248l-359 -510l359 -504h-256l-221 332l-224 -332h-251l356 504z" />
<glyph unicode="y" horiz-adv-x="1122" d="M20 1014h220l333 -805l312 805h217l-623 -1546h-223l207 505z" />
<glyph unicode="z" horiz-adv-x="1128" d="M117 821v193h876l-461 -834h480v-180h-846l491 821h-540z" />
<glyph unicode="{" horiz-adv-x="1005" d="M205 496v235q72 12 120 69t48 132v237q0 183 75.5 345.5t213.5 279.5l139 -180q-97 -87 -150 -202.5t-53 -242.5v-237q0 -171 -113 -293l-24 -25l24 -24q113 -125 113 -295v-240q0 -126 52.5 -240.5t148.5 -201.5l-140 -180q-135 117 -210.5 280.5t-75.5 341.5v240 q0 75 -48 132t-120 69z" />
<glyph unicode="|" horiz-adv-x="976" d="M369 -483v2048h239v-2048h-239z" />
<glyph unicode="}" horiz-adv-x="1005" d="M205 1614l139 180q138 -117 213.5 -279.5t75.5 -345.5v-237q0 -75 48 -132t120 -69v-235q-72 -12 -120 -69t-48 -132v-240q0 -178 -75.5 -341.5t-211.5 -280.5l-139 180q96 87 148.5 201.5t52.5 240.5v240q0 171 112 295l25 24l-25 25q-112 121 -112 293v237 q0 127 -53 242.5t-150 202.5z" />
<glyph unicode="~" horiz-adv-x="1802" d="M225 401v254q222 144 387 144q119 0 295 -58q12 -4 56.5 -19.5t63 -21t54 -15.5t65.5 -13.5t60 -3.5q163 0 371 151v-254q-199 -137 -377 -137q-90 0 -172 29q-5 2 -47 16.5t-50.5 17.5t-45 15t-49 15t-43.5 12t-48 11.5t-43.5 7t-48.5 6t-45 1.5q-88 0 -179.5 -39 t-203.5 -119z" />
<glyph unicode="&#xa1;" horiz-adv-x="632" d="M184 1485q0 57 40.5 97t97.5 40t97 -40t40 -97t-40 -97t-97 -40t-97.5 40t-40.5 97zM223 0v1135h205v-1135h-205z" />
<glyph unicode="&#xa2;" horiz-adv-x="1267" d="M217 717q0 203 130.5 350.5t326.5 167.5v199h94v-197q195 -15 328 -154l-148 -147q-42 46 -99 72t-120 26q-125 0 -217 -94t-92 -223q0 -124 91 -220t218 -96q125 0 217 95l2 2l148 -148q-136 -139 -328 -151v-213h-94v213q-196 22 -326.5 168.5t-130.5 349.5z" />
<glyph unicode="&#xa3;" horiz-adv-x="1480" d="M168 141q206 183 268 240q54 49 66 117.5t-19 140.5h-280v53h250l-41 64q-40 63 -60 99t-43.5 106.5t-25.5 138.5q0 211 150 352t374 141q148 1 275 -74.5t198 -205.5l-203 -88q-41 69 -113 109t-155 40q-124 0 -213.5 -73.5t-89.5 -198.5q-2 -35 16 -83t37 -81.5 t55 -91.5q58 -90 74 -129l10 -23h318v-55h-293q14 -96 -2.5 -165t-65.5 -171q30 -10 66.5 -23.5t42.5 -15.5q146 -59 207 -59q100 0 211 96l155 -151q-170 -164 -354 -164q-96 0 -244 53q-14 4 -46 15.5t-51.5 18t-51 12t-62.5 5.5q-50 -3 -97 -24.5t-105 -77.5z" />
<glyph unicode="&#xa4;" horiz-adv-x="1409" d="M143 444l201 203q-72 107 -72 238q0 133 72 237l-201 205l117 117l203 -201q109 74 239 74q138 0 244 -74l201 201l119 -117l-201 -205q70 -107 70 -237q0 -131 -70 -238l201 -203l-119 -118l-201 202q-103 -73 -241 -73q-136 0 -242 73l-203 -202zM444 885 q0 -107 76 -183.5t185 -76.5q107 0 183.5 76.5t76.5 183.5q0 106 -76.5 183t-183.5 77t-184 -77t-77 -183z" />
<glyph unicode="&#xa5;" horiz-adv-x="1542" d="M154 1577h235l383 -645l377 645h240l-259 -465h242v-205h-354l-135 -243h491v-205h-493v-459h-226v459h-481v205h481v8l-131 235h-350v205h238z" />
<glyph unicode="&#xa6;" horiz-adv-x="976" d="M369 -350v758h239v-758h-239zM369 674v758h239v-758h-239z" />
<glyph unicode="&#xa7;" horiz-adv-x="1148" d="M225 547q0 66 25 127.5t69 105.5l50 45l-25 27q-60 66 -76 158q-2 14 -2 43q0 115 77.5 203.5t191.5 103.5q14 2 43 2q105 0 189 -65t110 -167l-213 -28q-30 51 -89 51q-34 0 -62 -24.5t-34 -59.5q-6 -29 5 -55t36 -39q27 -19 127 -62q139 -63 187 -98q30 -22 47 -43 q38 -43 61 -106t23 -125q0 -66 -25.5 -128t-69.5 -106l-49 -45l27 -29q36 -39 55 -96.5t19 -101.5q0 -117 -76.5 -204.5t-190.5 -102.5q-14 -2 -43 -2q-106 0 -189.5 65t-109.5 166l213 29q30 -52 88 -52q34 0 62.5 23.5t34.5 58.5q6 31 -5 56.5t-36 40.5q-28 18 -127 61 q-64 29 -91.5 42t-73.5 42.5t-67 56.5h-2v2q-38 39 -61 103t-23 127zM434 547q0 -67 47 -114.5t115 -47.5q66 0 113 47t47 115q0 66 -47 113t-113 47q-67 0 -115 -48q-47 -44 -47 -112z" />
<glyph unicode="&#xa8;" horiz-adv-x="1024" d="M240 1333q0 45 34.5 79t81.5 34t80 -33.5t33 -79.5q0 -51 -31.5 -83.5t-81.5 -32.5q-47 0 -81.5 34.5t-34.5 81.5zM553 1333q0 45 34 79t81 34t80.5 -33.5t33.5 -79.5q0 -51 -32 -83.5t-82 -32.5q-47 0 -81 34.5t-34 81.5z" />
<glyph unicode="&#xa9;" horiz-adv-x="1738" d="M123 737q0 148 57 285t164 246q214 217 524 217q314 0 533 -219q215 -215 215 -529t-213 -524q-110 -108 -248.5 -165.5t-286.5 -57.5t-283.5 57t-242.5 164t-163 241.5t-56 284.5zM258 737q0 -120 47 -231t135 -199q180 -180 430 -180q121 0 234 46.5t203 135.5 q174 171 174 428q0 256 -176 432q-181 181 -435 181t-430 -179q-88 -90 -135 -201.5t-47 -232.5zM521 734q0 151 104 257q108 105 258 105q149 0 254 -105l-90 -92q-65 68 -164 68q-101 0 -166 -68q-67 -67 -67 -164t67 -166q67 -67 166 -67q97 0 164 67l90 -90 q-103 -106 -254 -106q-152 0 -258 106q-104 104 -104 255z" />
<glyph unicode="&#xaa;" horiz-adv-x="1013" />
<glyph unicode="&#xab;" horiz-adv-x="1200" d="M109 502l358 489l192 -133l-264 -356l264 -348l-192 -140zM582 502l360 489l191 -133l-263 -356l263 -348l-191 -140z" />
<glyph unicode="&#xac;" horiz-adv-x="1648" d="M225 639v227h1198v-501h-229v274h-969z" />
<glyph unicode="&#xad;" horiz-adv-x="946" d="M184 494v235h578v-235h-578z" />
<glyph unicode="&#xae;" horiz-adv-x="1738" d="M123 737q0 150 58.5 289.5t168.5 247.5q214 211 518 211q156 0 294 -57.5t245 -167.5q102 -104 155.5 -238.5t53.5 -284.5q0 -155 -57 -291t-164 -239q-110 -105 -246 -161t-281 -56q-151 0 -287 58.5t-243 168.5q-104 107 -159.5 240.5t-55.5 279.5zM260 737 q0 -247 174 -424q88 -91 199.5 -138.5t234.5 -47.5q121 0 232 45t200 131q88 85 134.5 196.5t46.5 237.5q0 253 -172 428q-182 185 -439 185q-251 0 -426 -172q-90 -90 -137 -203.5t-47 -237.5zM655 420v672h265q77 0 133.5 -62t56.5 -143q0 -60 -34.5 -114t-88.5 -77 l182 -276h-143l-174 260h-74v-260h-123zM778 801h142q30 0 52.5 26.5t22.5 59.5q0 34 -22 59t-53 25h-142v-170z" />
<glyph unicode="&#xaf;" horiz-adv-x="1024" d="M205 1247v168h614v-168h-614z" />
<glyph unicode="&#xb0;" horiz-adv-x="827" d="M102 1266q0 131 91 221t221 90q128 0 219.5 -90.5t91.5 -220.5q0 -128 -91.5 -220t-221.5 -92q-129 0 -219.5 91t-90.5 221zM248 1268q0 -69 48 -117.5t118 -48.5q68 0 116 49t48 117t-47.5 116t-116.5 48q-68 0 -117 -48t-49 -116z" />
<glyph unicode="&#xb1;" horiz-adv-x="1648" d="M225 -18v231h1198v-231h-1198zM225 690v232h482v319h237v-319h479v-232h-479v-319h-237v319h-482z" />
<glyph unicode="&#xb2;" horiz-adv-x="788" d="M45 1163q0 117 83.5 200t201.5 83q119 0 202.5 -83.5t83.5 -201.5q0 -99 -59 -174l-215 -278h293v-138h-588l391 508q29 42 29 82q0 57 -40 96t-97 39q-56 0 -96 -39t-41 -94h-148z" />
<glyph unicode="&#xb3;" horiz-adv-x="757" d="M61 858h150q1 -55 41 -94t96 -39q57 0 97 40t40 97t-40 97t-97 40q-58 0 -96 -38l-107 104l238 238h-289v147h502v-147h-2l2 -3l-166 -161q70 -23 121 -74q85 -85 85 -203t-85 -203q-84 -84 -203 -84t-203 84q-81 81 -84 199z" />
<glyph unicode="&#xb4;" horiz-adv-x="1112" d="M446 1298l146 281h223l-246 -281h-123z" />
<glyph unicode="&#xb5;" horiz-adv-x="1314" />
<glyph unicode="&#xb6;" horiz-adv-x="1048" d="M41 1130q0 156 105 252.5t284 96.5h580v-123h-107v-1356h-174v1356h-151v-1356h-175v784q-166 6 -264 101.5t-98 244.5z" />
<glyph unicode="&#xb7;" horiz-adv-x="772" d="M184 721q0 84 57.5 142.5t143.5 58.5q85 0 144 -58t59 -143q0 -86 -59 -144.5t-144 -58.5t-143 59t-58 144z" />
<glyph unicode="&#xb8;" horiz-adv-x="1024" d="M430 -295h109q0 -41 29 -68.5t69 -27.5q43 0 72.5 28.5t29.5 69.5t-29.5 70.5t-72.5 29.5q-53 0 -82 -43l-104 35l79 201h132l-37 -84h12q88 0 149 -61q60 -62 60 -147.5t-60 -147.5q-62 -62 -149 -62q-86 0 -148 62q-56 59 -59 145z" />
<glyph unicode="&#xb9;" horiz-adv-x="763" d="M94 600v135h168v484l-168 -84v149l322 164v-713h168v-135h-490z" />
<glyph unicode="&#xba;" horiz-adv-x="987" d="M123 1094q0 154 108.5 263t260.5 109q155 0 263.5 -109t108.5 -263t-108.5 -262.5t-263.5 -108.5q-152 0 -260.5 108.5t-108.5 262.5zM342 1094q0 -63 44 -107.5t106 -44.5q63 0 107 44.5t44 107.5q0 62 -44 105.5t-107 43.5q-62 0 -106 -44t-44 -105z" />
<glyph unicode="&#xbb;" horiz-adv-x="1200" d="M68 154l262 348l-262 356l190 133l358 -489l-358 -488zM541 154l262 348l-262 356l190 133l361 -489l-361 -488z" />
<glyph unicode="&#xbc;" horiz-adv-x="2070" d="M164 600v135h168v484l-168 -84v149l321 164v-713h168v-135h-489zM469 0l1135 1479h188l-1139 -1479h-184zM1208 168l584 733v-606h115v-127h-115v-137h-152v137h-432zM1481 295h159v197z" />
<glyph unicode="&#xbd;" horiz-adv-x="2103" d="M164 600v135h168v484l-168 -84v149l321 164v-713h168v-135h-489zM393 0l1135 1479h188l-1138 -1479h-185zM1350 623q0 117 83 199.5t201 82.5q119 0 203 -83t84 -201q0 -100 -59 -175l-215 -278h292v-137h-587l391 508q29 42 29 82q0 57 -40.5 96t-97.5 39q-56 0 -96 -39 t-41 -94h-147z" />
<glyph unicode="&#xbe;" horiz-adv-x="2121" d="M164 856h149q1 -55 41.5 -94t96.5 -39q57 0 97 40t40 97t-40 97t-97 40q-58 0 -97 -39l-106 105l237 237h-288v148h501v-150l-166 -161q93 -30 149 -108t56 -169q0 -119 -84 -203t-202 -84q-116 0 -200 83.5t-87 199.5zM520 0l1135 1479h188l-1138 -1479h-185zM1260 168 l583 733v-606h115v-127h-115v-137h-151v137h-432zM1532 295h160v197z" />
<glyph unicode="&#xbf;" horiz-adv-x="1101" d="M184 340q0 63 23 127.5t61 105.5l2 2h2q21 28 66.5 57.5t77 44.5t92.5 42q6 3 34 14.5t42.5 18t38 21.5t34.5 28.5t18.5 34t2.5 43.5q-6 34 -30 57.5t-56 26.5h-12q-28 0 -52 -14.5t-36 -37.5l-220 29q28 103 114 169.5t194 66.5q124 0 218.5 -92t94.5 -224v-43 q-17 -106 -93 -173t-202 -120q-123 -54 -149 -75v-3q-35 -27 -45.5 -67.5t4.5 -81.5q15 -44 54 -71t87 -27h16q50 1 90.5 29t59.5 73l213 -29q-29 -125 -132 -205.5t-233 -80.5q-168 3 -282 114q-97 100 -97 240zM436 1454q0 57 40 97t97 40t97.5 -40t40.5 -97t-40.5 -97 t-97.5 -40t-97 40t-40 97z" />
<glyph unicode="&#xc0;" d="M106 0l648 1577h243l652 -1577h-242l-135 326h-789l-133 -326h-244zM571 545h609l-306 739zM584 2052h223l145 -280h-123z" />
<glyph unicode="&#xc1;" d="M106 0l648 1577h243l652 -1577h-242l-135 326h-789l-133 -326h-244zM571 545h609l-306 739zM805 1772l145 280h224l-246 -280h-123z" />
<glyph unicode="&#xc2;" d="M106 0l648 1577h243l652 -1577h-242l-135 326h-789l-133 -326h-244zM571 545h609l-306 739zM616 1769l146 281h221l147 -281h-122l-134 144l-135 -144h-123z" />
<glyph unicode="&#xc3;" d="M106 0l648 1577h243l652 -1577h-242l-135 326h-789l-133 -326h-244zM571 545h609l-306 739zM602 1827q24 99 65.5 147.5t106.5 48.5q20 0 74 -14l74 -20q19 -7 47 -7q54 0 69 68h97q-25 -104 -67 -153.5t-110 -49.5q-30 0 -61 8l-74 21q-37 12 -53 12q-51 0 -72 -61h-96z " />
<glyph unicode="&#xc4;" d="M106 0l648 1577h243l652 -1577h-242l-135 326h-789l-133 -326h-244zM571 545h609l-306 739zM602 1806q0 45 35 79t82 34t79.5 -33.5t32.5 -79.5q0 -51 -31.5 -83.5t-80.5 -32.5q-47 0 -82 34.5t-35 81.5zM915 1806q0 45 34 79t81 34t81 -33.5t34 -79.5q0 -51 -32.5 -83.5 t-82.5 -32.5q-47 0 -81 34.5t-34 81.5z" />
<glyph unicode="&#xc5;" d="M106 0l619 1509q-68 65 -68 160q0 90 63.5 153.5t153.5 63.5q89 0 153.5 -64t64.5 -153q0 -93 -68 -158l625 -1511h-242l-115 276h-829l-113 -276h-244zM551 496h651l-328 788zM782 1669q0 -36 24 -62.5t60 -29.5h8q38 0 65.5 27t27.5 65t-27.5 65t-65.5 27t-65 -27 t-27 -65z" />
<glyph unicode="&#xc6;" horiz-adv-x="2066" d="M86 0l801 1577h1036v-223h-651v-475h555v-224h-555v-436h651v-219h-876v272h-566l-149 -272h-246zM598 496h449v821z" />
<glyph unicode="&#xc7;" horiz-adv-x="1603" d="M158.5 580.5q-54.5 207.5 0 414.5t208.5 361q114 112 262 173.5t305 61.5q158 0 305.5 -61t261.5 -174l-162 -162q-81 81 -187 124.5t-218 43.5q-115 0 -222 -44.5t-186 -123.5q-168 -168 -168 -408q0 -237 168 -405t408 -168q117 0 221.5 43t183.5 125l162 -162 q-209 -209 -508 -231l-30 -72h12q88 0 149 -61q60 -62 60 -147.5t-60 -147.5q-62 -62 -149 -62q-86 0 -148 62q-56 59 -59 145h109q0 -41 29 -68.5t69 -27.5q43 0 72.5 28.5t29.5 69.5t-29.5 70.5t-72.5 29.5q-53 0 -82 -43l-105 35l76 191q-140 12 -268.5 71.5 t-228.5 157.5q-154 154 -208.5 361.5zM864 -10q46 -4 70 -4q41 0 59 2l6 12h-131z" />
<glyph unicode="&#xc8;" horiz-adv-x="1325" d="M199 0v1577h983v-217h-764v-481h665v-217h-665v-443h764v-219h-983zM426 2052h223l146 -280h-123z" />
<glyph unicode="&#xc9;" horiz-adv-x="1325" d="M199 0v1577h983v-217h-764v-481h665v-217h-665v-443h764v-219h-983zM578 1772l145 280h223l-246 -280h-122z" />
<glyph unicode="&#xca;" horiz-adv-x="1325" d="M199 0v1577h983v-217h-764v-481h665v-217h-665v-443h764v-219h-983zM434 1769l146 281h221l147 -281h-123l-133 144l-135 -144h-123z" />
<glyph unicode="&#xcb;" horiz-adv-x="1325" d="M199 0v1577h983v-217h-764v-481h665v-217h-665v-443h764v-219h-983zM418 1806q0 45 35 79t82 34t79.5 -33.5t32.5 -79.5q0 -51 -31.5 -83.5t-80.5 -32.5q-47 0 -82 34.5t-35 81.5zM731 1806q0 45 34 79t81 34t81 -33.5t34 -79.5q0 -51 -32.5 -83.5t-82.5 -32.5 q-47 0 -81 34.5t-34 81.5z" />
<glyph unicode="&#xcc;" horiz-adv-x="622" d="M20 2052h224l145 -280h-123zM199 0v1577h219v-1577h-219z" />
<glyph unicode="&#xcd;" horiz-adv-x="620" d="M205 0v1577h219v-1577h-219zM231 1772l146 280h223l-246 -280h-123z" />
<glyph unicode="&#xce;" horiz-adv-x="628" d="M57 1769l146 281h221l147 -281h-122l-134 144l-135 -144h-123zM203 0v1577h219v-1577h-219z" />
<glyph unicode="&#xcf;" horiz-adv-x="636" d="M59 1806q0 45 35 79t82 34t80 -33.5t33 -79.5q0 -51 -31.5 -83.5t-81.5 -32.5q-47 0 -82 34.5t-35 81.5zM223 0v1577h219v-1577h-219zM373 1806q0 45 33.5 79t80.5 34t81 -33.5t34 -79.5q0 -51 -32.5 -83.5t-82.5 -32.5q-47 0 -80.5 34.5t-33.5 81.5z" />
<glyph unicode="&#xd0;" horiz-adv-x="1591" />
<glyph unicode="&#xd1;" horiz-adv-x="1763" d="M199 0v1577h262l878 -1219v1219h226v-1577h-252l-889 1237v-1237h-225zM649 1827q24 99 65.5 147.5t106.5 48.5q20 0 74 -14l74 -20q19 -7 47 -7q54 0 69 68h97q-25 -105 -66.5 -154t-109.5 -49q-31 0 -62 8l-74 21q-37 12 -53 12q-51 0 -72 -61h-96z" />
<glyph unicode="&#xd2;" horiz-adv-x="1867" d="M131 786q0 161 61 308.5t175 261.5q114 113 261.5 174t305.5 61q157 0 305 -61.5t262 -173.5q154 -154 208.5 -361t0 -414.5t-208.5 -361.5q-113 -111 -261 -172t-306 -61q-162 0 -307.5 59.5t-259.5 173.5t-175 260t-61 307zM360 784q0 -116 43 -220t125 -183 q79 -82 184 -125t222 -43q239 0 407 168t168 405q0 240 -168 408q-79 79 -186 123.5t-221 44.5q-112 0 -218.5 -43.5t-187.5 -124.5q-80 -80 -125.5 -188t-42.5 -222zM627 2052h223l145 -280h-123z" />
<glyph unicode="&#xd3;" horiz-adv-x="1867" d="M131 786q0 161 61 308.5t175 261.5q114 113 261.5 174t305.5 61q157 0 305 -61.5t262 -173.5q154 -154 208.5 -361t0 -414.5t-208.5 -361.5q-113 -111 -261 -172t-306 -61q-162 0 -307.5 59.5t-259.5 173.5t-175 260t-61 307zM360 784q0 -116 43 -220t125 -183 q79 -82 184 -125t222 -43q239 0 407 168t168 405q0 240 -168 408q-79 79 -186 123.5t-221 44.5q-112 0 -218.5 -43.5t-187.5 -124.5q-80 -80 -125.5 -188t-42.5 -222zM856 1772l145 280h224l-246 -280h-123z" />
<glyph unicode="&#xd4;" horiz-adv-x="1867" d="M131 786q0 161 61 308.5t175 261.5q114 113 261.5 174t305.5 61q157 0 305 -61.5t262 -173.5q154 -154 208.5 -361t0 -414.5t-208.5 -361.5q-113 -111 -261 -172t-306 -61q-162 0 -307.5 59.5t-259.5 173.5t-175 260t-61 307zM360 784q0 -116 43 -220t125 -183 q79 -82 184 -125t222 -43q239 0 407 168t168 405q0 240 -168 408q-79 79 -186 123.5t-221 44.5q-112 0 -218.5 -43.5t-187.5 -124.5q-80 -80 -125.5 -188t-42.5 -222zM678 1769l145 281h221l148 -281h-123l-133 144l-135 -144h-123z" />
<glyph unicode="&#xd5;" horiz-adv-x="1867" d="M131 786q0 161 61 308.5t175 261.5q114 113 261.5 174t305.5 61q157 0 305 -61.5t262 -173.5q154 -154 208.5 -361t0 -414.5t-208.5 -361.5q-113 -111 -261 -172t-306 -61q-162 0 -307.5 59.5t-259.5 173.5t-175 260t-61 307zM360 784q0 -116 43 -220t125 -183 q79 -82 184 -125t222 -43q239 0 407 168t168 405q0 240 -168 408q-79 79 -186 123.5t-221 44.5q-112 0 -218.5 -43.5t-187.5 -124.5q-80 -80 -125.5 -188t-42.5 -222zM662 1827q24 99 65.5 147.5t106.5 48.5q19 0 73 -14l74 -20q19 -7 47 -7q55 0 70 68h96 q-25 -105 -66.5 -154t-109.5 -49q-31 0 -62 8l-73 21q-38 12 -54 12q-50 0 -71 -61h-96z" />
<glyph unicode="&#xd6;" horiz-adv-x="1867" d="M131 786q0 161 61 308.5t175 261.5q114 113 261.5 174t305.5 61q157 0 305 -61.5t262 -173.5q154 -154 208.5 -361t0 -414.5t-208.5 -361.5q-113 -111 -261 -172t-306 -61q-162 0 -307.5 59.5t-259.5 173.5t-175 260t-61 307zM360 784q0 -116 43 -220t125 -183 q79 -82 184 -125t222 -43q239 0 407 168t168 405q0 240 -168 408q-79 79 -186 123.5t-221 44.5q-112 0 -218.5 -43.5t-187.5 -124.5q-80 -80 -125.5 -188t-42.5 -222zM666 1806q0 45 34.5 79t81.5 34t80 -33.5t33 -79.5q0 -51 -31.5 -83.5t-81.5 -32.5q-47 0 -81.5 34.5 t-34.5 81.5zM979 1806q0 45 34 79t81 34t80.5 -33.5t33.5 -79.5q0 -51 -32 -83.5t-82 -32.5q-47 0 -81 34.5t-34 81.5z" />
<glyph unicode="&#xd7;" horiz-adv-x="1675" d="M236 170l440 440l-440 443l161 161l441 -440l440 440l162 -161l-441 -443l441 -440l-162 -162l-440 441l-441 -441z" />
<glyph unicode="&#xd8;" horiz-adv-x="1953" d="M131 39l211 219q-97 109 -148 244.5t-51 283.5q0 161 61 308.5t175 261.5q114 113 261.5 174t305.5 61q137 0 269 -47.5t239 -136.5l139 143h222l-248 -256q127 -156 166 -351t-18.5 -387.5t-201.5 -336.5q-113 -111 -261 -172t-306 -61q-272 0 -487 161l-105 -108h-223z M373 784q0 -205 129 -362l794 821q-153 119 -350 119q-112 0 -218 -43.5t-187 -124.5q-80 -80 -125.5 -188t-42.5 -222zM618 313q142 -100 328 -100q240 0 408 168t168 405q0 192 -115 344z" />
<glyph unicode="&#xd9;" horiz-adv-x="1714" d="M174 668v909h223v-899q0 -194 135 -326q132 -135 326 -135q124 0 229.5 62t166.5 168t61 231v899h225v-909q0 -111 -34.5 -214.5t-97.5 -187.5t-146.5 -147.5t-188 -98t-215.5 -34.5q-139 0 -265.5 54t-218 145.5t-146 218t-54.5 264.5zM573 2052h224l145 -280h-123z" />
<glyph unicode="&#xda;" horiz-adv-x="1714" d="M174 668v909h223v-899q0 -194 135 -326q132 -135 326 -135q124 0 229.5 62t166.5 168t61 231v899h225v-909q0 -111 -34.5 -214.5t-97.5 -187.5t-146.5 -147.5t-188 -98t-215.5 -34.5q-139 0 -265.5 54t-218 145.5t-146 218t-54.5 264.5zM774 1772l146 280h223l-246 -280 h-123z" />
<glyph unicode="&#xdb;" horiz-adv-x="1714" d="M174 668v909h223v-899q0 -194 135 -326q132 -135 326 -135q124 0 229.5 62t166.5 168t61 231v899h225v-909q0 -111 -34.5 -214.5t-97.5 -187.5t-146.5 -147.5t-188 -98t-215.5 -34.5q-139 0 -265.5 54t-218 145.5t-146 218t-54.5 264.5zM600 1769l145 281h222l147 -281 h-123l-133 144l-135 -144h-123z" />
<glyph unicode="&#xdc;" horiz-adv-x="1714" d="M174 668v909h223v-899q0 -194 135 -326q132 -135 326 -135q124 0 229.5 62t166.5 168t61 231v899h225v-909q0 -111 -34.5 -214.5t-97.5 -187.5t-146.5 -147.5t-188 -98t-215.5 -34.5q-139 0 -265.5 54t-218 145.5t-146 218t-54.5 264.5zM586 1806q0 45 34.5 79t81.5 34 t80 -33.5t33 -79.5q0 -51 -31.5 -83.5t-81.5 -32.5q-47 0 -81.5 34.5t-34.5 81.5zM899 1806q0 45 34 79t81 34t80.5 -33.5t33.5 -79.5q0 -51 -32 -83.5t-82 -32.5q-47 0 -81 34.5t-34 81.5z" />
<glyph unicode="&#xdd;" horiz-adv-x="1433" d="M102 1577h236l383 -645l377 645h239l-508 -918v-659h-225v672zM639 1772l145 280h224l-246 -280h-123z" />
<glyph unicode="&#xde;" horiz-adv-x="1298" />
<glyph unicode="&#xdf;" horiz-adv-x="1468" d="M174 682v211h172v264q0 173 123 295.5t295 122.5q173 0 295.5 -122.5t122.5 -295.5q0 -129 -78 -242l-23 -32l35 -21q100 -65 156.5 -169t56.5 -224q0 -126 -63 -233.5t-171.5 -171t-236.5 -64.5h-55v207h55q111 0 186 78q78 78 78 184q0 105 -78 186q-78 78 -184 78h-57 v217q74 12 123 71.5t49 135.5q0 88 -61.5 149.5t-149.5 61.5t-149.5 -61.5t-61.5 -149.5v-1157h-207v682h-172z" />
<glyph unicode="&#xe0;" horiz-adv-x="1316" d="M123 506q0 144 67.5 264t185.5 189t259 69q55 0 107.5 -12.5t88 -31t63.5 -36.5t41 -30l13 -13v109h203v-1014h-203v109q-5 -5 -14 -13.5t-39.5 -29.5t-64.5 -37t-87 -29.5t-108 -13.5q-215 0 -363.5 151t-148.5 369zM326 506q0 -129 92 -221q92 -95 217 -95 q123 0 221 95q94 94 94 221t-94.5 222t-220.5 95q-125 0 -217 -94t-92 -223zM436 1579h223l146 -281h-123z" />
<glyph unicode="&#xe1;" horiz-adv-x="1316" d="M123 506q0 144 67.5 264t185.5 189t259 69q55 0 107.5 -12.5t88 -31t63.5 -36.5t41 -30l13 -13v109h203v-1014h-203v109q-5 -5 -14 -13.5t-39.5 -29.5t-64.5 -37t-87 -29.5t-108 -13.5q-215 0 -363.5 151t-148.5 369zM326 506q0 -129 92 -221q92 -95 217 -95 q123 0 221 95q94 94 94 221t-94.5 222t-220.5 95q-125 0 -217 -94t-92 -223zM582 1298l145 281h223l-245 -281h-123z" />
<glyph unicode="&#xe2;" horiz-adv-x="1316" d="M123 506q0 144 67.5 264t185.5 189t259 69q55 0 107.5 -12.5t88 -31t63.5 -36.5t41 -30l13 -13v109h203v-1014h-203v109q-5 -5 -14 -13.5t-39.5 -29.5t-64.5 -37t-87 -29.5t-108 -13.5q-215 0 -363.5 151t-148.5 369zM326 506q0 -129 92 -221q92 -95 217 -95 q123 0 221 95q94 94 94 221t-94.5 222t-220.5 95q-125 0 -217 -94t-92 -223zM438 1296l146 281h221l147 -281h-123l-133 144l-135 -144h-123z" />
<glyph unicode="&#xe3;" horiz-adv-x="1316" d="M123 506q0 144 67.5 264t185.5 189t259 69q55 0 107.5 -12.5t88 -31t63.5 -36.5t41 -30l13 -13v109h203v-1014h-203v109q-5 -5 -14 -13.5t-39.5 -29.5t-64.5 -37t-87 -29.5t-108 -13.5q-215 0 -363.5 151t-148.5 369zM326 506q0 -129 92 -221q92 -95 217 -95 q123 0 221 95q94 94 94 221t-94.5 222t-220.5 95q-125 0 -217 -94t-92 -223zM414 1354q24 99 65.5 147.5t106.5 48.5q19 0 73 -14l74 -20q19 -7 47 -7q55 0 70 68h96q-25 -105 -66.5 -154t-109.5 -49q-30 0 -61 8l-74 21q-37 12 -53 12q-51 0 -72 -61h-96z" />
<glyph unicode="&#xe4;" horiz-adv-x="1316" d="M123 506q0 144 67.5 264t185.5 189t259 69q55 0 107.5 -12.5t88 -31t63.5 -36.5t41 -30l13 -13v109h203v-1014h-203v109q-5 -5 -14 -13.5t-39.5 -29.5t-64.5 -37t-87 -29.5t-108 -13.5q-215 0 -363.5 151t-148.5 369zM326 506q0 -129 92 -221q92 -95 217 -95 q123 0 221 95q94 94 94 221t-94.5 222t-220.5 95q-125 0 -217 -94t-92 -223zM375 1333q0 45 35 79t82 34t79.5 -33.5t32.5 -79.5q0 -51 -31.5 -83.5t-80.5 -32.5q-47 0 -82 34.5t-35 81.5zM688 1333q0 45 34 79t81 34t81 -33.5t34 -79.5q0 -51 -32.5 -83.5t-82.5 -32.5 q-47 0 -81 34.5t-34 81.5z" />
<glyph unicode="&#xe5;" horiz-adv-x="1316" d="M123 506q0 144 67.5 264t185.5 189t259 69q55 0 107.5 -12.5t88 -31t63.5 -36.5t41 -30l13 -13v109h203v-1014h-203v109q-5 -5 -14 -13.5t-39.5 -29.5t-64.5 -37t-87 -29.5t-108 -13.5q-215 0 -363.5 151t-148.5 369zM326 506q0 -129 92 -221q92 -95 217 -95 q123 0 221 95q94 94 94 221t-94.5 222t-220.5 95q-125 0 -217 -94t-92 -223zM457 1399q0 90 63.5 153.5t153.5 63.5q89 0 153 -64t64 -153q0 -91 -63 -154t-154 -63t-154 62.5t-63 154.5zM582 1399q0 -38 27 -65t65 -27t65 27t27 65t-27 65t-65 27t-65 -27t-27 -65z" />
<glyph unicode="&#xe6;" horiz-adv-x="1798" d="M127 313q0 135 91 230.5t220 95.5q43 0 81.5 -8.5t62 -20.5t41 -24t25.5 -20l7 -9v113q0 102 -92 141q-41 17 -90.5 13t-89.5 -29q-32 -18 -53 -62l-187 78q29 75 95 131q83 66 194 81.5t209 -24.5q103 -43 164 -135q70 78 167 121t208 43q116 0 221 -53.5t174.5 -139 t100 -200t5.5 -229.5h-794q33 -93 113 -154.5t180 -61.5q125 0 217 95l2 2l147 -148q-71 -72 -165 -112.5t-201 -40.5q-115 0 -214 45.5t-171 126.5q-105 -172 -344 -172q-152 0 -238 97t-86 230zM324 313q0 -61 50.5 -104t121.5 -43t121.5 43t50.5 104t-50.5 104.5 t-121.5 43.5t-121.5 -43.5t-50.5 -104.5zM887 614h583q-32 93 -112 151t-178 58t-179.5 -58t-113.5 -151z" />
<glyph unicode="&#xe7;" horiz-adv-x="1103" d="M123 506q0 144 67.5 264t185.5 189t259 69q107 0 201 -41t165 -115l-147 -147q-42 46 -99 72t-120 26q-125 0 -217 -94t-92 -223q0 -124 91 -220t218 -96q125 0 217 95l2 2l147 -148q-71 -72 -165 -112.5t-201 -40.5h-6l-29 -64h12q89 0 150 -61q60 -62 60 -148t-60 -147 q-62 -62 -150 -62q-85 0 -147 62q-56 59 -59 145h108q0 -41 29 -68.5t69 -27.5q43 0 73 28.5t30 69.5t-30 71t-73 30q-53 0 -82 -43l-104 34l78 197q-168 43 -274.5 182t-106.5 322z" />
<glyph unicode="&#xe8;" horiz-adv-x="1253" d="M123 506q0 144 67.5 264t185.5 189t259 69q155 0 284 -89t190 -234t28 -299h-795q33 -93 113 -154.5t180 -61.5q125 0 217 95l2 2l147 -148q-71 -72 -165 -112.5t-201 -40.5q-215 0 -363.5 151t-148.5 369zM342 614h584q-32 93 -112.5 151t-178.5 58t-179.5 -58 t-113.5 -151zM377 1579h223l145 -281h-122z" />
<glyph unicode="&#xe9;" horiz-adv-x="1253" d="M123 506q0 144 67.5 264t185.5 189t259 69q155 0 284 -89t190 -234t28 -299h-795q33 -93 113 -154.5t180 -61.5q125 0 217 95l2 2l147 -148q-71 -72 -165 -112.5t-201 -40.5q-215 0 -363.5 151t-148.5 369zM342 614h584q-32 93 -112.5 151t-178.5 58t-179.5 -58 t-113.5 -151zM535 1298l145 281h223l-246 -281h-122z" />
<glyph unicode="&#xea;" horiz-adv-x="1253" d="M123 506q0 144 67.5 264t185.5 189t259 69q155 0 284 -89t190 -234t28 -299h-795q33 -93 113 -154.5t180 -61.5q125 0 217 95l2 2l147 -148q-71 -72 -165 -112.5t-201 -40.5q-215 0 -363.5 151t-148.5 369zM342 614h584q-32 93 -112.5 151t-178.5 58t-179.5 -58 t-113.5 -151zM383 1296l145 281h222l147 -281h-123l-133 144l-135 -144h-123z" />
<glyph unicode="&#xeb;" horiz-adv-x="1253" d="M123 506q0 144 67.5 264t185.5 189t259 69q155 0 284 -89t190 -234t28 -299h-795q33 -93 113 -154.5t180 -61.5q125 0 217 95l2 2l147 -148q-71 -72 -165 -112.5t-201 -40.5q-215 0 -363.5 151t-148.5 369zM342 614h584q-32 93 -112.5 151t-178.5 58t-179.5 -58 t-113.5 -151zM360 1333q0 45 35 79t82 34t80 -33.5t33 -79.5q0 -51 -31.5 -83.5t-81.5 -32.5q-47 0 -82 34.5t-35 81.5zM674 1333q0 45 33.5 79t80.5 34t81 -33.5t34 -79.5q0 -51 -32.5 -83.5t-82.5 -32.5q-47 0 -80.5 34.5t-33.5 81.5z" />
<glyph unicode="&#xec;" horiz-adv-x="552" d="M12 1579h224l145 -281h-123zM195 2v1014h204v-1014h-204z" />
<glyph unicode="&#xed;" horiz-adv-x="595" d="M184 2v1014h205v-1014h-205zM223 1298l146 281h223l-246 -281h-123z" />
<glyph unicode="&#xee;" horiz-adv-x="608" d="M47 1296l146 281h221l147 -281h-123l-133 144l-135 -144h-123zM197 2v1014h204v-1014h-204z" />
<glyph unicode="&#xef;" horiz-adv-x="604" d="M31 1333q0 45 34.5 79t81.5 34t80 -33.5t33 -79.5q0 -51 -31.5 -83.5t-81.5 -32.5q-47 0 -81.5 34.5t-34.5 81.5zM195 2v1014h204v-1014h-204zM344 1333q0 45 34 79t81 34t80.5 -33.5t33.5 -79.5q0 -51 -32 -83.5t-82 -32.5q-47 0 -81 34.5t-34 81.5z" />
<glyph unicode="&#xf0;" horiz-adv-x="1275" />
<glyph unicode="&#xf1;" horiz-adv-x="1253" d="M166 0v1012h205v-119q4 5 11 14.5t32.5 32.5t54.5 41t78 32.5t102 14.5q198 0 320.5 -129.5t122.5 -341.5v-557h-201v567q0 109 -78 188t-184 79q-109 0 -183 -80q-75 -75 -75 -185v-569h-205zM377 1354q24 99 65.5 147.5t106.5 48.5q20 0 74 -14l73 -20q19 -7 47 -7 q55 0 70 68h96q-25 -105 -66.5 -154t-109.5 -49q-30 0 -61 8l-74 21q-37 12 -53 12q-51 0 -72 -61h-96z" />
<glyph unicode="&#xf2;" horiz-adv-x="1273" d="M123 506q0 144 68 264t186.5 189t259.5 69t259.5 -69t186.5 -189t68 -264q0 -218 -149.5 -369t-364.5 -151t-364.5 151t-149.5 369zM328 506q0 -124 91 -220t218 -96q123 0 216 94.5t93 221.5q0 129 -92 223t-217 94t-217 -94t-92 -223zM365 1579h223l145 -281h-123z" />
<glyph unicode="&#xf3;" horiz-adv-x="1273" d="M123 506q0 144 68 264t186.5 189t259.5 69t259.5 -69t186.5 -189t68 -264q0 -218 -149.5 -369t-364.5 -151t-364.5 151t-149.5 369zM328 506q0 -124 91 -220t218 -96q123 0 216 94.5t93 221.5q0 129 -92 223t-217 94t-217 -94t-92 -223zM567 1298l146 281h223l-246 -281 h-123z" />
<glyph unicode="&#xf4;" horiz-adv-x="1273" d="M123 506q0 144 68 264t186.5 189t259.5 69t259.5 -69t186.5 -189t68 -264q0 -218 -149.5 -369t-364.5 -151t-364.5 151t-149.5 369zM328 506q0 -124 91 -220t218 -96q123 0 216 94.5t93 221.5q0 129 -92 223t-217 94t-217 -94t-92 -223zM383 1296l145 281h222l147 -281 h-123l-133 144l-135 -144h-123z" />
<glyph unicode="&#xf5;" horiz-adv-x="1273" d="M123 506q0 144 68 264t186.5 189t259.5 69t259.5 -69t186.5 -189t68 -264q0 -218 -149.5 -369t-364.5 -151t-364.5 151t-149.5 369zM328 506q0 -124 91 -220t218 -96q123 0 216 94.5t93 221.5q0 129 -92 223t-217 94t-217 -94t-92 -223zM377 1354q24 99 65.5 147.5 t106.5 48.5q20 0 74 -14l73 -20q19 -7 47 -7q55 0 70 68h96q-25 -105 -66.5 -154t-109.5 -49q-30 0 -61 8l-74 21q-37 12 -53 12q-51 0 -72 -61h-96z" />
<glyph unicode="&#xf6;" horiz-adv-x="1273" d="M123 506q0 144 68 264t186.5 189t259.5 69t259.5 -69t186.5 -189t68 -264q0 -218 -149.5 -369t-364.5 -151t-364.5 151t-149.5 369zM328 506q0 -124 91 -220t218 -96q123 0 216 94.5t93 221.5q0 129 -92 223t-217 94t-217 -94t-92 -223zM369 1333q0 45 34.5 79t81.5 34 t80 -33.5t33 -79.5q0 -51 -31.5 -83.5t-81.5 -32.5q-47 0 -81.5 34.5t-34.5 81.5zM682 1333q0 45 34 79t81 34t80.5 -33.5t33.5 -79.5q0 -51 -32 -83.5t-82 -32.5q-47 0 -81 34.5t-34 81.5z" />
<glyph unicode="&#xf7;" horiz-adv-x="1646" d="M225 504v205h1196v-205h-1196zM690 205q0 55 39.5 94t93.5 39t92.5 -39t38.5 -94q0 -54 -37.5 -92.5t-93.5 -38.5q-55 0 -94 38t-39 93zM690 1016q0 55 39.5 94t93.5 39q53 0 92 -39t39 -94q0 -53 -38.5 -92t-94.5 -39q-55 0 -93 38.5t-38 92.5z" />
<glyph unicode="&#xf8;" horiz-adv-x="1257" d="M102 0l152 156q-133 146 -133 350q0 144 68 264t186.5 189t259.5 69q197 0 342 -129l127 131h63l-157 -164q139 -149 139 -360q0 -218 -149.5 -369t-364.5 -151q-203 0 -348 135l-119 -121h-66zM326 506q0 -109 73 -201l432 445q-89 73 -196 73q-125 0 -217 -94t-92 -223 zM432 272q85 -82 203 -82q123 0 216 94.5t93 221.5q0 118 -80 211z" />
<glyph unicode="&#xf9;" horiz-adv-x="1265" d="M162 459v555h200v-555q0 -105 82 -187q79 -82 189 -82q109 0 188 82q82 82 82 187v555h201v-555q0 -196 -138 -334.5t-333 -138.5t-333 138.5t-138 334.5zM362 1579h224l145 -281h-123z" />
<glyph unicode="&#xfa;" horiz-adv-x="1265" d="M162 459v555h200v-555q0 -105 82 -187q79 -82 189 -82q109 0 188 82q82 82 82 187v555h201v-555q0 -196 -138 -334.5t-333 -138.5t-333 138.5t-138 334.5zM578 1298l145 281h223l-246 -281h-122z" />
<glyph unicode="&#xfb;" horiz-adv-x="1265" d="M162 459v555h200v-555q0 -105 82 -187q79 -82 189 -82q109 0 188 82q82 82 82 187v555h201v-555q0 -196 -138 -334.5t-333 -138.5t-333 138.5t-138 334.5zM389 1296l146 281h221l147 -281h-123l-133 144l-135 -144h-123z" />
<glyph unicode="&#xfc;" horiz-adv-x="1265" d="M162 459v555h200v-555q0 -105 82 -187q79 -82 189 -82q109 0 188 82q82 82 82 187v555h201v-555q0 -196 -138 -334.5t-333 -138.5t-333 138.5t-138 334.5zM371 1333q0 45 34.5 79t81.5 34t80 -33.5t33 -79.5q0 -51 -31.5 -83.5t-81.5 -32.5q-47 0 -81.5 34.5t-34.5 81.5z M684 1333q0 45 34 79t81 34t80.5 -33.5t33.5 -79.5q0 -51 -32 -83.5t-82 -32.5q-47 0 -81 34.5t-34 81.5z" />
<glyph unicode="&#xfd;" horiz-adv-x="1122" d="M20 1014h220l333 -805l312 805h217l-623 -1546h-223l207 505zM485 1298l146 281h223l-246 -281h-123z" />
<glyph unicode="&#xff;" horiz-adv-x="1122" d="M20 1014h220l333 -805l312 805h217l-623 -1546h-223l207 505zM297 1333q0 45 35 79t82 34t79.5 -33.5t32.5 -79.5q0 -51 -31.5 -83.5t-80.5 -32.5q-47 0 -82 34.5t-35 81.5zM610 1333q0 45 34 79t81 34t81 -33.5t34 -79.5q0 -51 -32.5 -83.5t-82.5 -32.5q-47 0 -81 34.5 t-34 81.5z" />
<glyph unicode="&#x152;" horiz-adv-x="2455" d="M158.5 580.5q-54.5 207.5 0 414.5t208.5 361q114 112 262 173.5t305 61.5q210 0 395 -104v90h983v-217h-764v-481h666v-217h-666v-443h764v-219h-983v88q-179 -102 -395 -102q-158 0 -306 61t-261 172q-154 154 -208.5 361.5zM358 786q0 -237 168 -405t408 -168 q234 0 395 158v833q-81 76 -184 117t-211 41q-115 0 -222 -44.5t-186 -123.5q-168 -168 -168 -408z" />
<glyph unicode="&#x153;" horiz-adv-x="2080" d="M123 506q0 144 68 264t186.5 189t259.5 69q125 0 233.5 -56t178.5 -153q70 98 178 153.5t235 55.5q155 0 284 -89t190 -234t28 -299h-795q33 -93 113 -154.5t180 -61.5q125 0 217 95l2 2l148 -148q-70 -72 -165 -112.5t-202 -40.5q-127 0 -235 56t-178 153 q-70 -97 -178.5 -153t-233.5 -56q-215 0 -364.5 151t-149.5 369zM328 506q0 -124 91 -220t218 -96q123 0 216 94.5t93 221.5q0 129 -92 223t-217 94t-217 -94t-92 -223zM1169 614h584q-32 93 -112.5 151t-178.5 58t-179.5 -58t-113.5 -151z" />
<glyph unicode="&#x178;" horiz-adv-x="1433" d="M102 1577h236l383 -645l377 645h239l-508 -918v-659h-225v672zM451 1806q0 45 34.5 79t81.5 34t80 -33.5t33 -79.5q0 -51 -31.5 -83.5t-81.5 -32.5q-47 0 -81.5 34.5t-34.5 81.5zM764 1806q0 45 34 79t81 34t80.5 -33.5t33.5 -79.5q0 -51 -32 -83.5t-82 -32.5 q-47 0 -81 34.5t-34 81.5z" />
<glyph unicode="&#x2c6;" horiz-adv-x="1024" d="M254 1296l145 281h222l147 -281h-123l-133 144l-135 -144h-123z" />
<glyph unicode="&#x2dc;" horiz-adv-x="1024" d="M246 1354q24 99 65.5 147.5t106.5 48.5q20 0 74 -14l73 -20q19 -7 47 -7q55 0 70 68h96q-25 -105 -66.5 -154t-109.5 -49q-30 0 -61 8l-74 21q-37 12 -53 12q-51 0 -72 -61h-96z" />
<glyph unicode="&#x2000;" horiz-adv-x="1026" />
<glyph unicode="&#x2001;" horiz-adv-x="2052" />
<glyph unicode="&#x2002;" horiz-adv-x="1026" />
<glyph unicode="&#x2003;" horiz-adv-x="2052" />
<glyph unicode="&#x2004;" horiz-adv-x="684" />
<glyph unicode="&#x2005;" horiz-adv-x="513" />
<glyph unicode="&#x2006;" horiz-adv-x="342" />
<glyph unicode="&#x2007;" horiz-adv-x="342" />
<glyph unicode="&#x2008;" horiz-adv-x="256" />
<glyph unicode="&#x2009;" horiz-adv-x="410" />
<glyph unicode="&#x200a;" horiz-adv-x="114" />
<glyph unicode="&#x2010;" horiz-adv-x="946" d="M184 494v235h578v-235h-578z" />
<glyph unicode="&#x2011;" horiz-adv-x="946" d="M184 494v235h578v-235h-578z" />
<glyph unicode="&#x2012;" horiz-adv-x="946" d="M184 494v235h578v-235h-578z" />
<glyph unicode="&#x2013;" horiz-adv-x="1056" d="M61 504v205h934v-205h-934z" />
<glyph unicode="&#x2014;" horiz-adv-x="1732" d="M61 504v205h1610v-205h-1610z" />
<glyph unicode="&#x2018;" horiz-adv-x="638" d="M154 1247q0 126 83.5 220.5t208.5 109.5v-41q-53 -6 -94.5 -39.5t-58.5 -83.5q20 4 31 4q70 0 121 -50.5t51 -119.5q0 -71 -51 -121.5t-121 -50.5q-69 0 -119.5 51t-50.5 121z" />
<glyph unicode="&#x2019;" horiz-adv-x="638" d="M143 1407q0 71 50.5 121.5t121.5 50.5q69 0 119.5 -51t50.5 -121q0 -126 -83.5 -220.5t-208.5 -109.5v41q53 6 94.5 39.5t58.5 83.5q-20 -4 -31 -4q-70 0 -121 50.5t-51 119.5z" />
<glyph unicode="&#x201a;" horiz-adv-x="667" d="M41 -295l213 627h373l-310 -627h-276z" />
<glyph unicode="&#x201c;" horiz-adv-x="1132" d="M154 1247q0 126 83.5 220.5t208.5 109.5v-41q-53 -6 -94.5 -39.5t-58.5 -83.5q20 4 31 4q70 0 121 -50.5t51 -119.5q0 -71 -51 -121.5t-121 -50.5q-69 0 -119.5 51t-50.5 121zM647 1247q0 126 84 220.5t209 109.5v-41q-54 -6 -95.5 -39.5t-58.5 -83.5q20 4 31 4 q70 0 121 -50.5t51 -119.5q0 -71 -50.5 -121.5t-121.5 -50.5q-69 0 -119.5 51t-50.5 121z" />
<glyph unicode="&#x201d;" horiz-adv-x="1132" d="M143 1405q0 71 50.5 121.5t121.5 50.5q69 0 119.5 -51t50.5 -121q0 -126 -83.5 -220.5t-208.5 -109.5v41q53 6 94.5 39.5t58.5 83.5q-20 -4 -31 -4q-70 0 -121 50.5t-51 119.5zM637 1405q0 71 50.5 121.5t121.5 50.5q69 0 119.5 -51t50.5 -121q0 -126 -84 -220.5 t-209 -109.5v41q54 6 95.5 39.5t58.5 83.5q-20 -4 -31 -4q-70 0 -121 50.5t-51 119.5z" />
<glyph unicode="&#x201e;" horiz-adv-x="1185" d="M41 -295l213 627h373l-310 -627h-276zM559 -295l211 627h375l-309 -627h-277z" />
<glyph unicode="&#x2022;" horiz-adv-x="923" d="M225 762q0 98 69.5 166.5t168.5 68.5q97 0 166 -68.5t69 -166.5q0 -97 -69.5 -167.5t-167.5 -70.5t-167 70t-69 168z" />
<glyph unicode="&#x2026;" horiz-adv-x="2070" d="M174 158q0 70 51 121t121 51t121 -51t51 -121t-51 -121t-121 -51t-121 51t-51 121zM848 158q0 70 51 121t121 51t121 -51t51 -121t-51 -121t-121 -51t-121 51t-51 121zM1542 158q0 70 51 121t121 51t121 -51t51 -121t-51 -121t-121 -51t-121 51t-51 121z" />
<glyph unicode="&#x202f;" horiz-adv-x="410" />
<glyph unicode="&#x2039;" horiz-adv-x="727" d="M109 502l358 489l192 -139l-264 -350l264 -355l-192 -133z" />
<glyph unicode="&#x203a;" horiz-adv-x="727" d="M68 147l262 355l-262 350l190 139l360 -489l-360 -488z" />
<glyph unicode="&#x205f;" horiz-adv-x="513" />
<glyph unicode="&#x20ac;" horiz-adv-x="1736" d="M41 643l20 57h324q-14 86 0 205h-248l21 53h235q55 236 201 394q103 114 241.5 176.5t286.5 62.5q141 0 271.5 -54.5t232.5 -154.5l-162 -151q-145 139 -342 139q-199 0 -368 -166q-47 -48 -81 -109.5t-45 -98.5l-10 -38h662l-20 -53h-652q-11 -37 -13 -95.5t5 -109.5 h584l-21 -57h-553q1 -6 3.5 -17.5t14 -44t26 -64t41.5 -72t59 -72.5q165 -165 368 -168h2q190 3 328 129l158 -154q-101 -95 -225.5 -144.5t-260.5 -49.5h-2q-149 0 -287.5 62t-240.5 177q-154 164 -205 418h-348z" />
<glyph unicode="&#x2122;" horiz-adv-x="1339" d="M174 1362v94h373v-94h-141v-414h-91v414h-141zM623 948v508h92l174 -244l172 244h94v-508h-90v352l-176 -247l-176 247v-352h-90z" />
<glyph unicode="&#x25fc;" horiz-adv-x="1013" d="M0 0v1014h1014v-1014h-1014z" />
</font>
</defs>
</svg>
